<svg width="48" height="48" viewBox="0 0 48 48" fill="none" xmlns="http://www.w3.org/2000/svg">
<path d="M7.76724 37.2422C6.28444 37.2422 5.07812 38.4485 5.07812 39.9313C5.07812 41.4141 6.28444 42.6204 7.76724 42.6204C9.25014 42.6204 10.4564 41.4141 10.4564 39.9313C10.4564 38.4484 9.24995 37.2422 7.76724 37.2422ZM7.76724 41.2424C7.04432 41.2424 6.45614 40.6543 6.45614 39.9313C6.45614 39.2084 7.04423 38.6202 7.76724 38.6202C8.49026 38.6202 9.07834 39.2084 9.07834 39.9313C9.07825 40.6542 8.49017 41.2424 7.76724 41.2424Z" fill="#192D6E"/>
<path d="M44.834 31.5245H37.941L44.3202 27.8519C44.8357 27.555 45.205 27.0751 45.3596 26.5007C45.5143 25.9262 45.436 25.3259 45.1392 24.8103L39.6099 15.2061C38.9971 14.1418 37.6326 13.7744 36.5683 14.3871L29.3129 18.5642L33.5496 11.3434C33.8507 10.8302 33.9339 10.2305 33.784 9.65476C33.6341 9.07899 33.2689 8.59624 32.7558 8.29513L23.1975 2.68673C22.1383 2.0651 20.7708 2.42127 20.1491 3.48061L15.5369 11.3412V2.06703C15.5369 0.927257 14.6095 0 13.4699 0H2.06703C0.927349 0 0 0.927349 0 2.06703V14.1536C0 14.5343 0.308473 14.8426 0.689008 14.8426C1.06964 14.8426 1.37802 14.5343 1.37802 14.1536V2.06703C1.37802 1.68704 1.68704 1.37802 2.06703 1.37802H13.4698C13.8498 1.37802 14.1588 1.68704 14.1588 2.06703V44.8339C14.1588 45.3022 13.7779 45.6831 13.3096 45.6832C13.309 45.6832 13.3085 45.6833 13.3079 45.6833H2.06703C1.68704 45.6833 1.37802 45.3743 1.37802 44.9943V16.9098C1.37802 16.5292 1.06964 16.2208 0.689008 16.2208C0.308473 16.2208 0 16.5292 0 16.9098V44.9944C0 46.1341 0.927349 47.0614 2.06703 47.0614L27.5811 47.0613C27.9617 47.0613 28.2701 46.7529 28.2701 46.3723C28.2701 45.9917 27.9617 45.6833 27.5811 45.6833H15.4184C15.4949 45.4677 15.5369 45.2359 15.5369 44.9944V44.834V44.4229L16.2386 44.0189C16.3546 44.1078 16.4993 44.161 16.6566 44.161H23.5872C23.9679 44.161 24.2762 43.8526 24.2762 43.472V39.3914L25.9012 38.4559L26.0439 38.3737V43.472C26.0439 43.8526 26.3523 44.161 26.7329 44.161H33.6635C34.0442 44.161 34.3525 43.8526 34.3525 43.472V35.3459C34.3525 34.9653 34.0442 34.6569 33.6635 34.6569H32.5L35.5473 32.9025H44.8338C45.3021 32.9025 45.6831 33.2835 45.6831 33.7518V44.8338C45.6831 45.3021 45.3021 45.6831 44.8338 45.6831H30.3372C29.9566 45.6831 29.6482 45.9915 29.6482 46.3721C29.6482 46.7528 29.9566 47.0611 30.3372 47.0611H44.834C46.0622 47.0611 47.0614 46.062 47.0614 44.8337V33.7519C47.0614 32.5237 46.0623 31.5245 44.834 31.5245ZM15.5369 19.9994L17.616 16.4753L23.4279 19.904L20.6066 24.6865L15.5369 21.6956V19.9994ZM15.5369 26.9479L18.3079 28.5826L15.5369 33.2796V26.9479ZM15.5369 34.9695C15.6002 34.988 15.6647 34.9978 15.7292 34.9978C15.9649 34.9978 16.1946 34.8766 16.3233 34.6588L19.8449 28.6894C19.9378 28.5321 19.9642 28.3442 19.9187 28.1673C19.8731 27.9903 19.7591 27.8388 19.6016 27.7458L15.5371 25.3478V23.2954L20.4998 26.2233C20.6067 26.2865 20.7278 26.3188 20.85 26.3188C20.9076 26.3188 20.9653 26.3117 21.022 26.297C21.199 26.2514 21.3505 26.1374 21.4435 25.9799L24.9651 20.0106C25.1584 19.6829 25.0495 19.2604 24.7217 19.0669L17.7228 14.938C17.3955 14.7448 16.9728 14.8535 16.7793 15.1813L15.5371 17.2871V14.0639L21.3379 4.17771C21.575 3.77374 22.0967 3.63807 22.5003 3.87503L32.0586 9.48343H32.0587C32.4625 9.72039 32.5983 10.2418 32.3613 10.6456L15.537 39.3191V34.9695H15.5369ZM24.7261 26.3815L27.9819 24.5127L31.3409 30.3653L26.5251 33.1292L23.6777 28.1681L24.0873 27.4701L24.7261 26.3815ZM21.0409 32.6619L22.6014 35.3811L17.8428 38.1123L17.9632 37.907L18.685 36.6768L21.0409 32.6619ZM22.8983 42.783H18.3855L22.8983 40.1848V42.783ZM32.9747 36.035V42.783H27.4221V37.5804L28.0187 37.2369L30.1065 36.035H32.9747ZM15.5369 42.8328V42.0423L17.009 39.5333C17.1419 39.6886 17.334 39.7748 17.5317 39.7748C17.648 39.7748 17.766 39.7454 17.8741 39.6833L23.885 36.2333C24.0436 36.1424 24.1593 35.9921 24.2071 35.8158C24.2549 35.6394 24.2307 35.4512 24.1397 35.2928L21.844 31.293L22.8743 29.5371L25.6727 34.4128C25.8001 34.6348 26.0322 34.759 26.271 34.759C26.3874 34.759 26.5053 34.7296 26.6134 34.6675L32.6244 31.2175C32.9545 31.0282 33.0685 30.6069 32.879 30.2769L28.8341 23.2291C28.7431 23.0706 28.5929 22.9548 28.4165 22.9071C28.2402 22.8592 28.052 22.8836 27.8935 22.9745L26.1318 23.9857L27.904 20.9652L37.2556 15.5813C37.6615 15.3477 38.182 15.4877 38.4154 15.8935L43.9447 25.4977C44.0578 25.6943 44.0878 25.9233 44.0287 26.1422C43.9697 26.3614 43.829 26.5444 43.6324 26.6574L15.5369 42.8328Z" fill="#192D6E"/>
<path d="M11.8952 3.271H3.76909C3.38846 3.271 3.08008 3.57938 3.08008 3.96V10.8906C3.08008 11.2713 3.38846 11.5796 3.76909 11.5796H11.8952C12.2758 11.5796 12.5842 11.2713 12.5842 10.8906V3.96C12.5842 3.57938 12.2757 3.271 11.8952 3.271ZM11.2061 10.2016H4.45809V4.64901H11.2061V10.2016Z" fill="#192D6E"/>
<path d="M11.8952 13.3472H3.76909C3.38846 13.3472 3.08008 13.6555 3.08008 14.0362V20.9668C3.08008 21.3474 3.38846 21.6558 3.76909 21.6558H11.8952C12.2758 21.6558 12.5842 21.3474 12.5842 20.9668V14.0362C12.5842 13.6556 12.2757 13.3472 11.8952 13.3472ZM11.2061 20.2778H4.45809V14.7252H11.2061V20.2778Z" fill="#192D6E"/>
<path d="M11.8952 23.4238H3.76909C3.38846 23.4238 3.08008 23.7322 3.08008 24.1128V31.0434C3.08008 31.424 3.38846 31.7324 3.76909 31.7324H11.8952C12.2758 31.7324 12.5842 31.424 12.5842 31.0434V24.1128C12.5842 23.7322 12.2757 23.4238 11.8952 23.4238ZM11.2061 30.3544H4.45809V24.8018H11.2061V30.3544Z" fill="#192D6E"/>
<path d="M43.7388 34.6572H36.8081C36.4275 34.6572 36.1191 34.9656 36.1191 35.3462V43.4723C36.1191 43.853 36.4275 44.1613 36.8081 44.1613H43.7388C44.1194 44.1613 44.4278 43.853 44.4278 43.4723V35.3462C44.4278 34.9657 44.1193 34.6572 43.7388 34.6572ZM43.0497 42.7833H37.4971V36.0353H43.0497V42.7833Z" fill="#192D6E"/>
<path d="M29.8429 10.3886L22.8441 6.25963C22.5167 6.06651 22.0941 6.17525 21.9005 6.50303L20.9194 8.16599C20.7261 8.49367 20.8349 8.91612 21.1628 9.10961C21.4904 9.30272 21.9129 9.19408 22.1064 8.86621L22.7372 7.79676L28.5492 11.2255L25.7278 16.0081L19.9159 12.5792L20.7056 11.2408C20.899 10.9131 20.79 10.4907 20.4622 10.2972C20.1347 10.104 19.712 10.2127 19.5186 10.5406L18.3789 12.4723C18.1856 12.8001 18.2944 13.2225 18.6223 13.4159L25.6211 17.545C25.728 17.6081 25.8491 17.6405 25.9712 17.6405C26.0288 17.6405 26.0866 17.6333 26.1433 17.6187C26.3202 17.573 26.4718 17.4591 26.5647 17.3016L30.0863 11.3322C30.2796 11.0045 30.1707 10.5821 29.8429 10.3886Z" fill="#192D6E"/>
<path d="M41.618 25.2612L37.5731 18.2134C37.3836 17.8833 36.9624 17.7693 36.6325 17.9588L30.6214 21.4088C30.463 21.4998 30.3472 21.65 30.2994 21.8264C30.2516 22.0028 30.2758 22.1909 30.3668 22.3494L34.4117 29.3972C34.5391 29.6192 34.7712 29.7433 35.01 29.7433C35.1264 29.7433 35.2443 29.7139 35.3524 29.6518L41.3634 26.2018C41.6935 26.0125 41.8073 25.5912 41.618 25.2612ZM35.264 28.1137L31.9049 22.2612L36.7208 19.4971L40.0798 25.3497L35.264 28.1137Z" fill="#192D6E"/>
</svg>
