<svg width="47" height="47" viewBox="0 0 47 47" fill="none" xmlns="http://www.w3.org/2000/svg">
<path d="M42.8691 0C41.3321 0 5.55307 0 4.13086 0C1.8531 0 0 1.8531 0 4.13086C0 4.50521 0 42.4968 0 42.8691C0 45.1469 1.8531 47 4.13086 47H42.8691C45.1469 47 47 45.1469 47 42.8691V4.13086C47 1.8531 45.1469 0 42.8691 0ZM2.75391 4.13086C2.75391 3.37161 3.37161 2.75391 4.13086 2.75391H17.4219L2.75391 17.4219V4.13086ZM2.75391 21.3164L21.3164 2.75391H33.9513L2.75391 34.031V21.3164ZM44.2461 42.8691C44.2461 43.6284 43.6284 44.2461 42.8691 44.2461H4.13086C3.37161 44.2461 2.75391 43.6284 2.75391 42.8691V37.9307L37.8409 2.75391H42.8691C43.6284 2.75391 44.2461 3.37161 44.2461 4.13086V42.8691Z" fill="#192D6E"/>
</svg>
