<svg width="36" height="48" viewBox="0 0 36 48" fill="none" xmlns="http://www.w3.org/2000/svg">
<path d="M14.7496 30.0566C14.4756 28.4502 13.026 27.3228 11.414 27.4618C9.80193 27.6007 8.56376 28.9601 8.56447 30.5898C8.56197 31.3542 8.83926 32.0928 9.34287 32.6644V35.2963C9.34287 36.5957 10.3889 37.6492 11.6788 37.6492C12.9687 37.6492 14.0147 36.5957 14.0147 35.2963V32.6655C14.6406 31.9539 14.9111 30.9941 14.7496 30.0574V30.0566ZM12.7245 31.7474C12.5549 31.8964 12.4572 32.1122 12.4576 32.3391V35.2963C12.4576 35.7293 12.1086 36.0805 11.6788 36.0805C11.249 36.0805 10.9 35.7293 10.9 35.2963V32.3391C10.9004 32.1122 10.8027 31.8968 10.6331 31.7478C10.3045 31.4544 10.1181 31.0322 10.1216 30.5898C10.1206 30.1245 10.3255 29.6825 10.6805 29.3845C10.9596 29.1482 11.3128 29.0193 11.6774 29.0211C11.7793 29.0215 11.8812 29.0308 11.9814 29.0491C12.6094 29.1762 13.097 29.6757 13.2132 30.3101C13.3097 30.8422 13.1248 31.3869 12.7245 31.7478V31.7474Z" fill="#192D6E"/>
<path d="M31.9226 11.7654H23.358V4.18835C23.369 3.23399 22.7991 2.37011 21.9217 2.01069C15.3537 -0.669633 8.00839 -0.670351 1.43971 2.00926C0.560794 2.36795 -0.0105346 3.23291 0.000157834 4.18835V42.873C-0.010891 43.8274 0.559012 44.6913 1.4365 45.0507C8.00447 47.731 15.3498 47.7317 21.9184 45.0521C22.7974 44.6934 23.3687 43.8285 23.358 42.873V18.0402H31.9226C33.6426 18.0402 35.0369 16.6356 35.0369 14.9028C35.0369 13.17 33.6426 11.7654 31.9226 11.7654ZM21.8008 42.873C21.809 43.1875 21.6248 43.4748 21.3371 43.5969C15.1416 46.1253 8.21261 46.1246 2.01781 43.5954C1.73161 43.473 1.54877 43.1861 1.55732 42.873V4.18835C1.54913 3.87382 1.73339 3.58657 2.02102 3.4645C8.21653 0.936409 15.1455 0.936768 21.3403 3.46593C21.6265 3.58873 21.8094 3.87525 21.8008 4.18835V11.7654H17.0534C15.9564 9.81793 13.9017 8.61834 11.6791 8.62767C8.23899 8.62767 5.45042 11.4373 5.45042 14.9028C5.45042 18.3684 8.23899 21.1776 11.6791 21.1776C13.9017 21.187 15.9564 19.9874 17.0534 18.0402H21.8008V42.873ZM11.6791 18.0402H15.1651C14.282 19.0449 13.0113 19.6165 11.6791 19.6089C9.09901 19.6089 7.00758 17.502 7.00758 14.9028C7.00758 12.3036 9.09901 10.1967 11.6791 10.1967C13.0113 10.1888 14.282 10.7608 15.1651 11.7654H11.6791C9.95903 11.7654 8.56475 13.17 8.56475 14.9028C8.56475 16.6356 9.95903 18.0402 11.6791 18.0402ZM33.0228 16.0112C32.7316 16.3064 32.3357 16.4722 31.9226 16.4715H11.6791C10.8191 16.4715 10.1219 15.7692 10.1219 14.9028C10.1219 14.0364 10.8191 13.3341 11.6791 13.3341H31.9226C32.5524 13.3334 33.1205 13.7154 33.3614 14.3018C33.6024 14.8881 33.4687 15.5628 33.0228 16.0112Z" fill="#192D6E"/>
<path d="M4.6724 5.49023C4.6724 5.9236 4.32383 6.27475 3.894 6.27475C3.46381 6.27475 3.11523 5.9236 3.11523 5.49023C3.11523 5.05721 3.46381 4.70605 3.894 4.70605C4.32383 4.70605 4.6724 5.05721 4.6724 5.49023Z" fill="#192D6E"/>
<path d="M7.00656 5.49092C7.09032 5.49092 7.17336 5.47728 7.25284 5.45035C8.68633 4.99436 10.1761 4.7441 11.6788 4.7064C12.109 4.70604 12.4572 4.35488 12.4572 3.92151C12.4568 3.48849 12.1079 3.13734 11.6781 3.1377C10.0079 3.17252 8.35166 3.45007 6.76028 3.96208C6.3971 4.08344 6.17541 4.45219 6.23671 4.83242C6.29801 5.21266 6.62413 5.49164 7.00656 5.49092Z" fill="#192D6E"/>
</svg>
