<svg width="48" height="48" viewBox="0 0 48 48" fill="none" xmlns="http://www.w3.org/2000/svg">
<path d="M45 0.75H3C1.7595 0.75 0.75 1.7595 0.75 3V45C0.75 46.2405 1.7595 47.25 3 47.25H45C46.2405 47.25 47.25 46.2405 47.25 45V3C47.25 1.7595 46.2405 0.75 45 0.75ZM45.75 45C45.75 45.414 45.414 45.75 45 45.75H3C2.586 45.75 2.25 45.414 2.25 45V3C2.25 2.586 2.586 2.25 3 2.25H45C45.414 2.25 45.75 2.586 45.75 3V45Z" fill="#192D6E"/>
<path d="M42 3.75H6C4.7595 3.75 3.75 4.7595 3.75 6V42C3.75 43.2405 4.7595 44.25 6 44.25H42C43.2405 44.25 44.25 43.2405 44.25 42V6C44.25 4.7595 43.2405 3.75 42 3.75ZM42.75 6V8.25H39.75V5.25H42C42.414 5.25 42.75 5.586 42.75 6ZM21.75 26.25V21.75H26.25V26.25H21.75ZM26.25 27.75V32.25H21.75V27.75H26.25ZM20.25 26.25H15.75V21.75H20.25V26.25ZM21.75 20.25V15.75H26.25V20.25H21.75ZM27.75 21.75H32.25V26.25H27.75V21.75ZM27.75 20.25V15.75H32.25V20.25H27.75ZM27.75 14.25V9.75H32.25V14.25H27.75ZM26.25 14.25H21.75V9.75H26.25V14.25ZM20.25 14.25H15.75V9.75H20.25V14.25ZM20.25 15.75V20.25H15.75V15.75H20.25ZM14.25 20.25H9.75V15.75H14.25V20.25ZM14.25 21.75V26.25H9.75V21.75H14.25ZM14.25 27.75V32.25H9.75V27.75H14.25ZM15.75 27.75H20.25V32.25H15.75V27.75ZM20.25 33.75V38.25H15.75V33.75H20.25ZM21.75 33.75H26.25V38.25H21.75V33.75ZM27.75 33.75H32.25V38.25H27.75V33.75ZM27.75 32.25V27.75H32.25V32.25H27.75ZM33.75 27.75H38.25V32.25H33.75V27.75ZM33.75 26.25V21.75H38.25V26.25H33.75ZM33.75 20.25V15.75H38.25V20.25H33.75ZM33.75 14.25V9.75H38.25V14.25H33.75ZM33.75 8.25V5.25H38.25V8.25H33.75ZM32.25 8.25H27.75V5.25H32.25V8.25ZM26.25 8.25H21.75V5.25H26.25V8.25ZM20.25 8.25H15.75V5.25H20.25V8.25ZM14.25 8.25H9.75V5.25H14.25V8.25ZM14.25 9.75V14.25H9.75V9.75H14.25ZM8.25 14.25H5.25V9.75H8.25V14.25ZM8.25 15.75V20.25H5.25V15.75H8.25ZM8.25 21.75V26.25H5.25V21.75H8.25ZM8.25 27.75V32.25H5.25V27.75H8.25ZM8.25 33.75V38.25H5.25V33.75H8.25ZM9.75 33.75H14.25V38.25H9.75V33.75ZM14.25 39.75V42.75H9.75V39.75H14.25ZM15.75 39.75H20.25V42.75H15.75V39.75ZM21.75 39.75H26.25V42.75H21.75V39.75ZM27.75 39.75H32.25V42.75H27.75V39.75ZM33.75 39.75H38.25V42.75H33.75V39.75ZM33.75 38.25V33.75H38.25V38.25H33.75ZM39.75 33.75H42.75V38.25H39.75V33.75ZM39.75 32.25V27.75H42.75V32.25H39.75ZM39.75 26.25V21.75H42.75V26.25H39.75ZM39.75 20.25V15.75H42.75V20.25H39.75ZM39.75 14.25V9.75H42.75V14.25H39.75ZM6 5.25H8.25V8.25H5.25V6C5.25 5.586 5.586 5.25 6 5.25ZM5.25 42V39.75H8.25V42.75H6C5.586 42.75 5.25 42.414 5.25 42ZM42 42.75H39.75V39.75H42.75V42C42.75 42.414 42.414 42.75 42 42.75Z" fill="#192D6E"/>
</svg>
