<svg width="46" height="46" viewBox="0 0 46 46" fill="none" xmlns="http://www.w3.org/2000/svg">
<path d="M43.7742 0H41.5484H26.7097H15.9078C14.9485 0 14.0997 0.611355 13.7955 1.52171L13.5618 2.22581H11.129C9.90187 2.22581 8.90323 3.22445 8.90323 4.45161V5.41242C6.76126 6.05271 5.19355 8.03961 5.19355 10.3871C5.19355 11.937 5.87984 13.3266 6.9601 14.2793C5.30039 15.5413 4.16448 17.4065 3.82987 19.4788C1.62706 20.079 0 22.0926 0 24.4839C0 27.347 2.33042 29.6774 5.19355 29.6774V34.129H8.53597C8.81197 35.2011 9.23784 36.2265 9.80764 37.188L7.44161 39.5548L11.6387 43.7519L14.0055 41.3859C14.9671 41.9557 15.9924 42.3816 17.0645 42.6576V46H23V42.6576C24.0721 42.3816 25.0975 41.9557 26.059 41.3859L28.4258 43.7519L32.6229 39.5548L30.2569 37.188C30.8267 36.2265 31.2525 35.2011 31.5285 34.129H34.871V28.1935H31.5285C31.2525 27.1215 30.8267 26.0961 30.2569 25.1345L32.3907 23H41.5484V13.3548V11.871H43.7742C45.0014 11.871 46 10.8723 46 9.64516V2.22581C46 0.998645 45.0014 0 43.7742 0ZM33.3871 1.48387C34.6143 1.48387 35.6129 2.48252 35.6129 3.70968C35.6129 4.93684 34.6143 5.93548 33.3871 5.93548C32.1599 5.93548 31.1613 4.93684 31.1613 3.70968C31.1613 2.48252 32.1599 1.48387 33.3871 1.48387ZM28.1935 1.48387H30.4386C29.9675 2.10561 29.6774 2.87129 29.6774 3.70968C29.6774 5.75519 31.3416 7.41935 33.3871 7.41935C34.2255 7.41935 34.9912 7.12926 35.6129 6.65813V11.871H28.1935V1.48387ZM22.1215 1.48387C21.8144 2.34526 20.9983 2.96774 20.0323 2.96774C19.0663 2.96774 18.2501 2.34526 17.943 1.48387H22.1215ZM6.67742 10.3871C6.67742 8.34158 8.34158 6.67742 10.3871 6.67742C12.4326 6.67742 14.0968 8.34158 14.0968 10.3871C14.0968 12.4326 12.4326 14.0968 10.3871 14.0968C9.62661 14.0968 8.91881 13.8653 8.32971 13.4706L8.30968 13.4298C8.30226 13.4335 8.29632 13.4379 8.2889 13.4416C7.31771 12.7717 6.67742 11.6536 6.67742 10.3871ZM8.29929 15.1392C8.49442 15.2253 8.69623 15.3002 8.90323 15.3625V20.8573C7.97506 19.9113 6.7071 19.346 5.36048 19.3022C5.75 17.5913 6.81468 16.0844 8.29929 15.1392ZM5.19355 28.1935C3.14803 28.1935 1.48387 26.5294 1.48387 24.4839C1.48387 22.4384 3.14803 20.7742 5.19355 20.7742C6.31313 20.7742 7.36594 21.2898 8.06484 22.1438L7.44087 22.7678L9.8069 25.1345C9.2371 26.0961 8.81123 27.1215 8.53523 28.1935H5.93548H5.19355ZM30.4194 22.8731L28.3612 24.9313L28.6958 25.4365C29.4378 26.5576 29.9482 27.784 30.2109 29.0831L30.3318 29.6774H33.3871V32.6452H30.3318L30.2109 33.2395C29.9482 34.5386 29.4378 35.765 28.6958 36.8861L28.3612 37.3913L30.5255 39.5555L28.4265 41.6545L26.2623 39.4903L25.757 39.8249C24.636 40.5668 23.4095 41.0773 22.1104 41.3399L21.5161 41.4608V44.5161H18.5484V41.4608L17.9541 41.3399C16.655 41.0773 15.4285 40.5668 14.3075 39.8249L13.8022 39.4903L11.638 41.6545L9.53906 39.5555L11.7033 37.3913L11.3687 36.8861C10.6267 35.765 10.1163 34.5386 9.85365 33.2395L9.73271 32.6452H6.67742V29.6774H9.73271L9.85365 29.0831C10.1163 27.784 10.6267 26.5576 11.3687 25.4365L11.7033 24.9313L9.53906 22.767L11.638 20.6681L13.8022 22.8323L14.3075 22.4977C15.4285 21.7558 16.655 21.2453 17.9541 20.9827L18.5484 20.8617V17.8065H21.5161V20.8617L22.1104 20.9827C23.4095 21.2453 24.636 21.7558 25.757 22.4977L26.2623 22.8323L28.4265 20.6681L30.4194 22.6617V22.8731ZM40.0645 21.5161H31.372L28.4258 18.5699L26.059 20.9359C25.0975 20.3661 24.0721 19.9403 23 19.6643V16.3226H17.0645V19.665C15.9924 19.941 14.9671 20.3669 14.0055 20.9367L11.6387 18.5706L10.3871 19.8215V15.5806C13.2502 15.5806 15.5806 13.2502 15.5806 10.3871C15.5806 7.52397 13.2502 5.19355 10.3871 5.19355V4.45161C10.3871 4.04206 10.7195 3.70968 11.129 3.70968H14.6317L15.2037 1.99135C15.3054 1.68716 15.5888 1.48387 15.9078 1.48387H16.3975C16.7425 3.17474 18.2412 4.45161 20.0323 4.45161C21.8233 4.45161 23.322 3.17474 23.667 1.48387H26.7097V9.66445C26.0879 9.19332 25.3223 8.90323 24.4839 8.90323C22.4384 8.90323 20.7742 10.5674 20.7742 12.6129C20.7742 14.6584 22.4384 16.3226 24.4839 16.3226C26.2749 16.3226 27.7736 15.0457 28.1186 13.3548H40.0645V21.5161ZM26.7097 12.6129C26.7097 13.8401 25.711 14.8387 24.4839 14.8387C23.2567 14.8387 22.2581 13.8401 22.2581 12.6129C22.2581 11.3857 23.2567 10.3871 24.4839 10.3871C25.711 10.3871 26.7097 11.3857 26.7097 12.6129ZM44.5161 9.64516C44.5161 10.0547 44.1837 10.3871 43.7742 10.3871H41.5484V8.90323H40.0645V10.3871V11.871H37.0968V3.70968C37.0968 2.87129 36.8067 2.10561 36.3355 1.48387H40.0645V7.41935H41.5484V1.48387H43.7742C44.1837 1.48387 44.5161 1.81626 44.5161 2.22581V9.64516Z" fill="#192D6E"/>
<path d="M5.1926 22.2583C3.96544 22.2583 2.9668 23.2569 2.9668 24.4841C2.9668 25.7113 3.96544 26.7099 5.1926 26.7099C6.41977 26.7099 7.41841 25.7113 7.41841 24.4841C7.41841 23.2569 6.41977 22.2583 5.1926 22.2583ZM5.1926 25.226C4.78306 25.226 4.45067 24.8937 4.45067 24.4841C4.45067 24.0746 4.78306 23.7422 5.1926 23.7422C5.60215 23.7422 5.93454 24.0746 5.93454 24.4841C5.93454 24.8937 5.60215 25.226 5.1926 25.226Z" fill="#192D6E"/>
<path d="M10.3879 12.6132C11.6151 12.6132 12.6137 11.6146 12.6137 10.3874C12.6137 9.16027 11.6151 8.16162 10.3879 8.16162C9.16075 8.16162 8.16211 9.16027 8.16211 10.3874C8.16211 11.6146 9.16075 12.6132 10.3879 12.6132ZM10.3879 9.64549C10.7975 9.64549 11.1299 9.97788 11.1299 10.3874C11.1299 10.797 10.7975 11.1294 10.3879 11.1294C9.97837 11.1294 9.64598 10.797 9.64598 10.3874C9.64598 9.97788 9.97837 9.64549 10.3879 9.64549Z" fill="#192D6E"/>
<path d="M20.0326 23.7417C15.9416 23.7417 12.6133 27.07 12.6133 31.1611C12.6133 35.2521 15.9416 38.5804 20.0326 38.5804C21.4393 38.5804 22.8097 38.1842 23.9953 37.4341L23.2014 36.181C22.254 36.7797 21.1589 37.0965 20.0326 37.0965C16.76 37.0965 14.0972 34.4337 14.0972 31.1611C14.0972 27.8884 16.76 25.2256 20.0326 25.2256C23.3053 25.2256 25.9681 27.8884 25.9681 31.1611C25.9681 32.7384 25.356 34.223 24.2446 35.3433L25.2982 36.388C26.6871 34.9887 27.452 33.1324 27.452 31.1611C27.452 27.07 24.1237 23.7417 20.0326 23.7417Z" fill="#192D6E"/>
<path d="M20.0317 26.7095C17.5766 26.7095 15.5801 28.706 15.5801 31.1611C15.5801 33.6161 17.5766 35.6127 20.0317 35.6127C22.4868 35.6127 24.4833 33.6161 24.4833 31.1611C24.4833 28.706 22.4868 26.7095 20.0317 26.7095ZM20.0317 34.1288C18.395 34.1288 17.0639 32.7978 17.0639 31.1611C17.0639 29.5244 18.395 28.1933 20.0317 28.1933C21.6684 28.1933 22.9994 29.5244 22.9994 31.1611C22.9994 32.7978 21.6684 34.1288 20.0317 34.1288Z" fill="#192D6E"/>
</svg>
