<svg width="48" height="48" viewBox="0 0 48 48" fill="none" xmlns="http://www.w3.org/2000/svg">
<path d="M43.9239 1.45896e-05H3.13737C1.4046 1.45896e-05 0 1.40497 0 3.13738C0 4.87015 1.4046 6.27511 3.13737 6.27511V44.7084C3.1388 46.0074 4.19153 47.0598 5.49057 47.0612H40.002C41.301 47.0598 42.3537 46.0074 42.3552 44.7084V6.27511H43.9239V7.05927C43.9239 7.49264 44.275 7.84379 44.708 7.84379C45.1414 7.84379 45.4925 7.49264 45.4925 7.05927V5.8385C46.7223 5.13154 47.3219 3.68565 46.9539 2.31588C46.5858 0.946108 45.3421 -0.00429399 43.9239 1.45896e-05ZM1.56868 3.13738C1.56868 2.271 2.27098 1.5687 3.13737 1.5687C4.00375 1.5687 4.70605 2.271 4.70605 3.13738C4.70605 4.00377 4.00375 4.70642 3.13737 4.70642C2.27134 4.70535 1.5694 4.00341 1.56868 3.13738ZM40.7865 44.7084C40.7858 45.1414 40.435 45.4922 40.002 45.4926H5.49057C5.05756 45.4922 4.70677 45.1414 4.70605 44.7084V6.27511H6.27473V16.4717C6.27473 16.9047 6.62588 17.2559 7.05925 17.2559C7.49227 17.2559 7.84342 16.9047 7.84342 16.4717V6.27511H9.4121V12.5498C9.4121 12.9829 9.76325 13.334 10.1966 13.334C10.6296 13.334 10.9808 12.9829 10.9808 12.5498V6.27511H12.5498V9.41248C12.5498 9.84549 12.901 10.1966 13.334 10.1966C13.7674 10.1966 14.1185 9.84549 14.1185 9.41248V6.27511H40.7865V44.7084ZM43.9239 4.70642H5.83849C6.12106 4.2314 6.2715 3.68996 6.27473 3.13738C6.2715 2.58517 6.12106 2.04336 5.83849 1.5687H43.9239C44.7902 1.5687 45.4925 2.271 45.4925 3.13738C45.4925 4.00377 44.7902 4.70642 43.9239 4.70642Z" fill="#192D6E"/>
<path d="M7.05991 42.355C6.62654 42.355 6.27539 42.7061 6.27539 43.1395C6.27539 43.5725 6.62654 43.9237 7.05991 43.9237H38.4339C38.8673 43.9237 39.2185 43.5725 39.2185 43.1395C39.2185 42.7061 38.8673 42.355 38.4339 42.355H7.05991Z" fill="#192D6E"/>
<path d="M44.708 14.1182C45.1414 14.1182 45.4925 13.767 45.4925 13.3337V10.1963C45.4925 9.76326 45.1414 9.41211 44.708 9.41211C44.275 9.41211 43.9238 9.76326 43.9238 10.1963V13.3337C43.9238 13.767 44.275 14.1182 44.708 14.1182Z" fill="#192D6E"/>
<path d="M43.9238 19.6089C43.9238 20.0419 44.275 20.3931 44.708 20.3931C45.1414 20.3931 45.4925 20.0419 45.4925 19.6089V16.4715C45.4925 16.0382 45.1414 15.687 44.708 15.687C44.275 15.687 43.9238 16.0382 43.9238 16.4715V19.6089Z" fill="#192D6E"/>
<path d="M43.9238 25.8833C43.9238 26.3163 44.275 26.6675 44.708 26.6675C45.1414 26.6675 45.4925 26.3163 45.4925 25.8833V22.746C45.4925 22.3126 45.1414 21.9614 44.708 21.9614C44.275 21.9614 43.9238 22.3126 43.9238 22.746V25.8833Z" fill="#192D6E"/>
<path d="M43.9238 32.1584C43.9238 32.5917 44.275 32.9429 44.708 32.9429C45.1414 32.9429 45.4925 32.5917 45.4925 32.1584V29.021C45.4925 28.588 45.1414 28.2368 44.708 28.2368C44.275 28.2368 43.9238 28.588 43.9238 29.021V32.1584Z" fill="#192D6E"/>
<path d="M43.9238 38.4333C43.9238 38.8666 44.275 39.2178 44.708 39.2178C45.1414 39.2178 45.4925 38.8666 45.4925 38.4333V35.2959C45.4925 34.8629 45.1414 34.5117 44.708 34.5117C44.275 34.5117 43.9238 34.8629 43.9238 35.2959V38.4333Z" fill="#192D6E"/>
<path d="M7.05992 21.9616C7.49293 21.9616 7.84408 21.6104 7.84408 21.1774V19.6087C7.84408 19.1754 7.49293 18.8242 7.05992 18.8242C6.62654 18.8242 6.27539 19.1754 6.27539 19.6087V21.1774C6.27539 21.6104 6.62654 21.9616 7.05992 21.9616Z" fill="#192D6E"/>
</svg>
