<svg width="47" height="47" viewBox="0 0 47 47" fill="none" xmlns="http://www.w3.org/2000/svg">
<path d="M28.8872 19.2617H17.5588C14.7941 19.2617 12.5449 21.5109 12.5449 24.2756V41.9862C12.5449 44.751 14.7941 47.0001 17.5588 47.0001H28.8872C31.6518 47.0001 33.901 44.7509 33.901 41.9862V24.2756C33.901 21.5109 31.6518 19.2617 28.8872 19.2617ZM31.1409 41.9862C31.1409 43.229 30.1299 44.2399 28.8872 44.2399H17.5588C16.3161 44.2399 15.3051 43.229 15.3051 41.9862V24.2756C15.3051 23.0329 16.316 22.0219 17.5588 22.0219H28.8872C30.1298 22.0219 31.1409 23.0328 31.1409 24.2756V41.9862Z" fill="#192D6E"/>
<path d="M27.4626 31.1902C27.4624 31.1581 27.4602 31.126 27.4578 31.094C27.4565 31.0797 27.4561 31.0651 27.4545 31.0508C27.4516 31.0239 27.4468 30.9972 27.4423 30.9703C27.439 30.9507 27.4365 30.931 27.4323 30.9118C27.4283 30.8928 27.4227 30.8739 27.4177 30.855C27.4108 30.8284 27.4042 30.8018 27.3958 30.7758C27.3915 30.7624 27.386 30.7492 27.3812 30.7358C27.3703 30.7052 27.359 30.6747 27.3459 30.6453C27.3446 30.6422 27.3437 30.639 27.3424 30.6359L24.5416 24.3868C24.4293 24.0186 24.1657 23.6987 23.7869 23.5289C23.6358 23.4612 23.4791 23.4244 23.3231 23.4132C23.3157 23.4125 23.3083 23.412 23.3007 23.4116C23.272 23.4099 23.2434 23.409 23.2147 23.4092C23.1878 23.4091 23.1611 23.4099 23.1341 23.4114C23.1249 23.412 23.1156 23.4126 23.1063 23.4133C22.951 23.4249 22.7951 23.4615 22.6448 23.5289C22.266 23.6986 22.0025 24.0186 21.8902 24.3868L19.0894 30.6359C19.088 30.639 19.0871 30.6422 19.0858 30.6453C19.0728 30.6748 19.0615 30.7051 19.0505 30.7358C19.0458 30.7491 19.0403 30.7624 19.0359 30.7758C19.0276 30.8018 19.0209 30.8284 19.014 30.855C19.0091 30.8739 19.0035 30.8928 18.9994 30.9118C18.9953 30.9309 18.9927 30.9508 18.9894 30.9703C18.9849 30.9972 18.98 31.0239 18.9772 31.0508C18.9756 31.0651 18.9753 31.0797 18.9742 31.094C18.9717 31.1261 18.9696 31.1582 18.9693 31.1902C18.9693 31.1936 18.9688 31.1969 18.9688 31.2004C18.9688 31.212 18.9702 31.2234 18.9705 31.2351C18.9713 31.2654 18.9723 31.2956 18.9751 31.3257C18.9769 31.3456 18.9799 31.3651 18.9824 31.3847C18.9856 31.4087 18.9889 31.4325 18.9934 31.4562C18.9979 31.4803 19.0035 31.5038 19.0093 31.5274C19.0139 31.5463 19.0184 31.5653 19.0238 31.5839C19.0312 31.6095 19.0397 31.6345 19.0486 31.6595C19.0545 31.6762 19.0603 31.6929 19.0669 31.7094C19.0766 31.734 19.0874 31.7578 19.0985 31.7817C19.1064 31.7986 19.1142 31.8155 19.1228 31.8321C19.1339 31.8537 19.1459 31.8747 19.1581 31.8956C19.1688 31.9141 19.1797 31.9323 19.1913 31.9501C19.2028 31.9679 19.215 31.9852 19.2273 32.0024C19.2414 32.0221 19.2558 32.0417 19.2709 32.0607C19.2825 32.0752 19.2947 32.0892 19.3068 32.1033C19.3241 32.1233 19.3416 32.1429 19.3601 32.1618C19.3724 32.1745 19.3852 32.1866 19.398 32.1987C19.4172 32.217 19.4366 32.2351 19.4569 32.2524C19.4718 32.2649 19.4872 32.2769 19.5026 32.2888C19.5217 32.3036 19.5409 32.3185 19.5608 32.3324C19.5807 32.3463 19.6013 32.359 19.622 32.3718C19.6387 32.3822 19.6552 32.3928 19.6725 32.4025C19.699 32.4174 19.7263 32.4309 19.7539 32.444C19.7642 32.449 19.7737 32.4548 19.7844 32.4595C19.7873 32.4609 19.7904 32.4617 19.7934 32.463C19.828 32.4783 19.8635 32.4916 19.8995 32.504C19.909 32.5073 19.9184 32.5113 19.928 32.5144C19.9622 32.5254 19.9972 32.5341 20.0324 32.5424C20.0442 32.5452 20.0559 32.549 20.0677 32.5515C20.0889 32.5559 20.1106 32.5582 20.1322 32.5616C20.2042 32.5731 20.2763 32.5806 20.348 32.5806C20.3513 32.5806 20.3546 32.5803 20.358 32.5803H26.0741C26.0774 32.5803 26.0807 32.5806 26.0841 32.5806C26.1551 32.5806 26.2263 32.5732 26.2974 32.562C26.3198 32.5585 26.3425 32.556 26.3646 32.5514C26.3758 32.549 26.3869 32.5455 26.3981 32.5428C26.4339 32.5345 26.4696 32.5255 26.5043 32.5143C26.5135 32.5114 26.5226 32.5075 26.532 32.5042C26.5682 32.4919 26.604 32.4784 26.6387 32.463C26.6417 32.4617 26.6448 32.4609 26.6477 32.4595C26.6582 32.4549 26.6678 32.449 26.6782 32.444C26.7058 32.4309 26.7331 32.4174 26.7596 32.4025C26.7769 32.3928 26.7934 32.3822 26.8101 32.3718C26.8307 32.359 26.8513 32.3462 26.8713 32.3324C26.8913 32.3185 26.9104 32.3037 26.9295 32.2888C26.9448 32.2769 26.9603 32.2649 26.9752 32.2524C26.9955 32.2351 27.0149 32.217 27.0341 32.1987C27.0469 32.1866 27.0597 32.1744 27.072 32.1618C27.0905 32.1428 27.108 32.1232 27.1253 32.1033C27.1374 32.0892 27.1496 32.0752 27.1612 32.0607C27.1763 32.0417 27.1907 32.0221 27.2048 32.0024C27.2171 31.9852 27.2294 31.9678 27.2408 31.9501C27.2524 31.9323 27.2632 31.9139 27.274 31.8956C27.2862 31.8747 27.2982 31.8538 27.3093 31.8321C27.3179 31.8155 27.3257 31.7986 27.3336 31.7817C27.3448 31.7578 27.3555 31.734 27.3652 31.7094C27.3717 31.6929 27.3775 31.6762 27.3835 31.6595C27.3923 31.6346 27.4008 31.6095 27.4083 31.5839C27.4137 31.5653 27.4182 31.5463 27.4228 31.5274C27.4285 31.5038 27.4343 31.4803 27.4388 31.4562C27.4433 31.4325 27.4464 31.4087 27.4497 31.3847C27.4523 31.365 27.4553 31.3455 27.457 31.3257C27.4598 31.2956 27.4608 31.2655 27.4616 31.2351C27.4619 31.2235 27.4634 31.212 27.4634 31.2004C27.4632 31.197 27.4627 31.1937 27.4626 31.1902ZM22.4794 29.8203L23.2156 28.1775L23.9519 29.8203H22.4794Z" fill="#192D6E"/>
<path d="M27.4612 35.261C27.4604 35.2307 27.4594 35.2005 27.4567 35.1704C27.4548 35.1506 27.4519 35.1309 27.4493 35.1114C27.4461 35.0874 27.4429 35.0636 27.4384 35.0399C27.4339 35.0158 27.4282 34.9923 27.4224 34.9687C27.4178 34.9497 27.4133 34.9308 27.4079 34.9122C27.4006 34.8866 27.392 34.8616 27.3831 34.8366C27.3773 34.8198 27.3715 34.8031 27.3649 34.7867C27.3551 34.7621 27.3443 34.7382 27.3333 34.7144C27.3254 34.6975 27.3176 34.6806 27.309 34.664C27.2978 34.6424 27.2858 34.6214 27.2736 34.6005C27.263 34.582 27.252 34.5638 27.2405 34.546C27.2289 34.5282 27.2167 34.5109 27.2044 34.4937C27.1904 34.4739 27.1759 34.4544 27.1608 34.4354C27.1492 34.4209 27.137 34.4069 27.1249 34.3928C27.1076 34.3728 27.0901 34.3532 27.0717 34.3342C27.0594 34.3216 27.0465 34.3095 27.0337 34.2973C27.0146 34.2791 26.9951 34.261 26.9748 34.2437C26.9599 34.2312 26.9445 34.2192 26.9291 34.2073C26.91 34.1925 26.8908 34.1776 26.8709 34.1637C26.8511 34.1498 26.8304 34.1371 26.8098 34.1243C26.7931 34.1139 26.7765 34.1033 26.7593 34.0935C26.7327 34.0787 26.7055 34.0652 26.6779 34.0521C26.6676 34.0471 26.658 34.0413 26.6474 34.0365C26.6443 34.0352 26.6411 34.0342 26.638 34.033C26.6085 34.02 26.5782 34.0087 26.5476 33.9978C26.5342 33.993 26.521 33.9875 26.5075 33.9832C26.4815 33.9749 26.455 33.9682 26.4284 33.9613C26.4095 33.9563 26.3906 33.9507 26.3716 33.9467C26.3523 33.9425 26.3326 33.94 26.3131 33.9367C26.2862 33.9322 26.2595 33.9274 26.2327 33.9245C26.2184 33.9229 26.2037 33.9225 26.1892 33.9214C26.1572 33.919 26.1251 33.9168 26.0934 33.9166C26.0899 33.9166 26.0866 33.916 26.0831 33.916H20.3486C20.3451 33.916 20.3417 33.9165 20.3381 33.9166C20.3067 33.9167 20.2753 33.919 20.2439 33.9213C20.2288 33.9224 20.2136 33.9229 20.1987 33.9246C20.1726 33.9274 20.1465 33.9321 20.1203 33.9365C20.1001 33.9399 20.0798 33.9425 20.0598 33.9469C20.0413 33.9508 20.0229 33.9563 20.0045 33.9611C19.9774 33.9681 19.9504 33.9748 19.924 33.9834C19.9108 33.9877 19.8977 33.993 19.8846 33.9978C19.8539 34.0088 19.8234 34.0201 19.7936 34.0332C19.7905 34.0346 19.7874 34.0354 19.7844 34.0368C19.7739 34.0415 19.7643 34.0474 19.7539 34.0523C19.7264 34.0655 19.699 34.079 19.6725 34.0938C19.6552 34.1036 19.6387 34.1141 19.622 34.1246C19.6014 34.1373 19.5808 34.1502 19.5609 34.164C19.5408 34.1778 19.5218 34.1927 19.5027 34.2076C19.4874 34.2195 19.4719 34.2314 19.457 34.244C19.4367 34.2613 19.4173 34.2793 19.398 34.2976C19.3852 34.3097 19.3724 34.3219 19.3601 34.3345C19.3416 34.3535 19.3241 34.3732 19.3068 34.3931C19.2947 34.4071 19.2825 34.4212 19.2709 34.4357C19.2558 34.4548 19.2414 34.4742 19.2273 34.494C19.215 34.5111 19.2027 34.5286 19.1913 34.5463C19.1797 34.5641 19.1689 34.5825 19.1581 34.6007C19.1459 34.6217 19.1339 34.6426 19.1228 34.6643C19.1142 34.6809 19.1064 34.6978 19.0985 34.7146C19.0874 34.7385 19.0766 34.7624 19.0669 34.787C19.0604 34.8034 19.0546 34.8202 19.0486 34.8368C19.0398 34.8618 19.0313 34.8869 19.0238 34.9125C19.0184 34.9311 19.0139 34.9501 19.0093 34.9689C19.0036 34.9925 18.9979 35.016 18.9934 35.0402C18.9889 35.0638 18.9857 35.0877 18.9824 35.1117C18.9798 35.1313 18.9768 35.1509 18.9751 35.1707C18.9723 35.2008 18.9713 35.2309 18.9705 35.2613C18.9702 35.2729 18.9688 35.2843 18.9688 35.296C18.9688 35.2994 18.9692 35.3027 18.9693 35.3062C18.9695 35.3382 18.9717 35.3704 18.9742 35.4024C18.9753 35.4167 18.9756 35.4314 18.9772 35.4455C18.9801 35.4724 18.9849 35.4991 18.9894 35.526C18.9927 35.5457 18.9953 35.5653 18.9994 35.5846C19.0034 35.6035 19.009 35.6224 19.014 35.6413C19.0209 35.668 19.0275 35.6946 19.0359 35.7206C19.0403 35.734 19.0458 35.7472 19.0505 35.7606C19.0615 35.7911 19.0728 35.8215 19.0858 35.8511C19.0872 35.8542 19.088 35.8573 19.0894 35.8605L21.8903 42.1096C22.0025 42.4778 22.266 42.7977 22.6449 42.9676C22.7967 43.0356 22.954 43.0724 23.1107 43.0836C23.1321 43.0853 23.1535 43.0862 23.175 43.0869C23.1862 43.0872 23.1975 43.0886 23.2086 43.0886C23.2111 43.0886 23.2135 43.0884 23.216 43.0884C23.2185 43.0884 23.221 43.0886 23.2234 43.0886C23.2346 43.0886 23.2458 43.0872 23.2569 43.0869C23.2785 43.0862 23.2999 43.0853 23.3214 43.0836C23.4781 43.0724 23.6355 43.0356 23.7872 42.9676C24.166 42.7978 24.4296 42.4778 24.5418 42.1096L27.3426 35.8605C27.344 35.8573 27.3449 35.8542 27.3462 35.8511C27.3592 35.8215 27.3706 35.7912 27.3815 35.7606C27.3865 35.747 27.3919 35.7337 27.3963 35.7203C27.4047 35.6943 27.4114 35.6677 27.4183 35.6411C27.4231 35.6222 27.4287 35.6033 27.4329 35.5843C27.437 35.5651 27.4396 35.5453 27.4429 35.5258C27.4474 35.4989 27.4522 35.4722 27.4551 35.4453C27.4567 35.431 27.457 35.4164 27.4581 35.4021C27.4606 35.37 27.4627 35.3379 27.463 35.3059C27.463 35.3025 27.4635 35.2992 27.4635 35.2957C27.463 35.284 27.4615 35.2727 27.4612 35.261ZM23.2156 38.3188L22.4793 36.6759H23.952L23.2156 38.3188Z" fill="#192D6E"/>
<path d="M31.7161 12.9557C29.1858 11.7325 26.3628 11.0859 23.5524 11.0859C20.742 11.0859 17.919 11.7325 15.3886 12.9558L15.2835 13.0065C14.5973 13.3383 14.31 14.1636 14.6419 14.8498C14.8799 15.3424 15.3723 15.6294 15.8852 15.6294C16.0867 15.6294 16.2914 15.5851 16.485 15.4915L16.59 15.4408C18.7479 14.3975 21.1554 13.8461 23.5523 13.8461C25.9491 13.8461 28.3567 14.3975 30.5147 15.4408C31.2008 15.7724 32.026 15.4851 32.3579 14.7989C32.6896 14.1128 32.4023 13.2875 31.7161 12.9557Z" fill="#192D6E"/>
<path d="M36.3226 8.36015L35.0987 7.85949C31.4187 6.35411 27.5368 5.59082 23.5609 5.59082C19.585 5.59082 15.7032 6.35411 12.0233 7.85949L10.7993 8.36015C10.0939 8.64876 9.75596 9.45464 10.0445 10.1601C10.3331 10.8656 11.139 11.2034 11.8444 10.9149L13.0684 10.4143C16.4149 9.04523 19.9451 8.35106 23.5609 8.35106C27.1768 8.35106 30.7069 9.04523 34.0535 10.4143L35.2774 10.9149C35.4484 10.9849 35.6254 11.0181 35.7995 11.0181C36.3432 11.0181 36.8586 10.6946 37.0774 10.1603C37.366 9.45473 37.0281 8.64885 36.3226 8.36015Z" fill="#192D6E"/>
<path d="M40.6007 3.71484L38.9428 3.03655C34.0173 1.02161 28.8215 0 23.4998 0C18.1782 0 12.9823 1.02161 8.05691 3.03664L6.39896 3.71493C5.6936 4.00354 5.35551 4.80933 5.64412 5.51488C5.93273 6.22025 6.73852 6.55824 7.44407 6.26973L9.10211 5.59144C13.6942 3.71272 18.5383 2.76015 23.4998 2.76015C28.4613 2.76015 33.3055 3.71272 37.8977 5.59135L39.5556 6.26964C39.7266 6.33968 39.9036 6.37281 40.0777 6.37281C40.6215 6.37281 41.1369 6.04923 41.3556 5.51488C41.6442 4.80924 41.3062 4.00345 40.6007 3.71484Z" fill="#192D6E"/>
</svg>
