<svg width="46" height="46" viewBox="0 0 46 46" fill="none" xmlns="http://www.w3.org/2000/svg">
<g clip-path="url(#clip0)">
<path d="M44.4667 0H1.53331C0.686813 0.000701904 0.000701904 0.686813 0 1.53331V6.90007C0.000701904 7.74657 0.686813 8.43233 1.53331 8.43338H2.51212L0.101074 12.6529C-0.0343933 12.8901 -0.0336914 13.1818 0.103531 13.4183C0.240753 13.6545 0.493439 13.8001 0.76683 13.8001H2.51212L0.101074 18.0196C-0.0343933 18.2569 -0.0336914 18.5485 0.103531 18.7847C0.240753 19.0213 0.493439 19.1665 0.76683 19.1665H2.51212L0.101074 23.3864C-0.0343933 23.6236 -0.0336914 23.9149 0.103531 24.1515C0.240753 24.3877 0.493439 24.5333 0.76683 24.5333H2.51212L0.101074 28.7532C-0.0343933 28.9904 -0.0336914 29.2817 0.103531 29.5182C0.240753 29.7544 0.493439 29.9001 0.76683 29.9001H2.51212L0.101074 34.1196C-0.0343933 34.3568 -0.0336914 34.6485 0.103531 34.8846C0.240753 35.1212 0.493439 35.2665 0.76683 35.2668H2.51212L0.101074 39.4863C-0.0343933 39.7236 -0.0336914 40.0152 0.103531 40.2514C0.240753 40.4879 0.493439 40.6332 0.76683 40.6332H2.51212L0.101074 44.8531C-0.0343933 45.0903 -0.0336914 45.3816 0.103531 45.6182C0.240753 45.8544 0.493439 46 0.76683 46H45.2332C45.5066 46 45.7592 45.8544 45.8965 45.6182C46.0337 45.3816 46.0344 45.0903 45.8989 44.8531L43.4879 40.6332H45.2332C45.5066 40.6332 45.7592 40.4879 45.8965 40.2514C46.0337 40.0152 46.0344 39.7236 45.8989 39.4863L43.4879 35.2668H45.2332C45.5066 35.2665 45.7592 35.1212 45.8965 34.8846C46.0337 34.6485 46.0344 34.3568 45.8989 34.1196L43.4879 29.9001H45.2332C45.5066 29.9001 45.7592 29.7544 45.8965 29.5182C46.0337 29.2817 46.0344 28.9904 45.8989 28.7532L43.4879 24.5333H45.2332C45.5066 24.5333 45.7592 24.3877 45.8965 24.1515C46.0337 23.9149 46.0344 23.6236 45.8989 23.3864L43.4879 19.1665H45.2332C45.5066 19.1665 45.7592 19.0213 45.8965 18.7847C46.0337 18.5485 46.0344 18.2569 45.8989 18.0196L43.4879 13.8001H45.2332C45.5066 13.8001 45.7592 13.6545 45.8965 13.4183C46.0337 13.1818 46.0344 12.8901 45.8989 12.6529L43.4879 8.43338H44.4667C45.3132 8.43233 45.9989 7.74657 46 6.90007V1.53331C45.9989 0.686813 45.3132 0.00105286 44.4667 0V0ZM4.27811 8.43338H8.43338V12.2668H2.08781L4.27811 8.43338ZM32.9667 8.43338V12.2668H13.0333V8.43338H32.9667ZM39.0999 8.43338V12.2668H37.5666V8.43338H39.0999ZM13.0333 39.0999V35.2668H32.9667V39.0999H13.0333ZM32.9667 40.6332V44.4667H13.0333V40.6332H32.9667ZM32.9667 17.6332H13.0333V13.8001H32.9667V17.6332ZM34.5 13.8001H36.0333V17.6332H34.5V13.8001ZM13.0333 28.3668V24.5333H32.9667V28.3668H13.0333ZM32.9667 29.9001V33.7332H13.0333V29.9001H32.9667ZM13.0333 23V19.1665H32.9667V23H13.0333ZM11.5 17.6332H9.96669V13.8001H11.5V17.6332ZM11.5 19.1665V23H9.96669V19.1665H11.5ZM11.5 24.5333V28.3668H9.96669V24.5333H11.5ZM11.5 29.9001V33.7332H9.96669V29.9001H11.5ZM11.5 35.2668V39.0999H9.96669V35.2668H11.5ZM34.5 35.2668H36.0333V39.0999H34.5V35.2668ZM34.5 33.7332V29.9001H36.0333V33.7332H34.5ZM34.5 28.3668V24.5333H36.0333V28.3668H34.5ZM34.5 23V19.1665H36.0333V23H34.5ZM37.5666 19.1665H39.0999V23H37.5666V19.1665ZM37.5666 17.6332V13.8001H39.0999V17.6332H37.5666ZM36.0333 12.2668H34.5V8.43338H36.0333V12.2668ZM11.5 12.2668H9.96669V8.43338H11.5V12.2668ZM4.27811 13.8001H8.43338V17.6332H2.08781L4.27811 13.8001ZM4.27811 19.1665H8.43338V23H2.08781L4.27811 19.1665ZM4.27811 24.5333H8.43338V28.3668H2.08781L4.27811 24.5333ZM4.27811 29.9001H8.43338V33.7332H2.08781L4.27811 29.9001ZM4.27811 35.2668H8.43338V39.0999H2.08781L4.27811 35.2668ZM4.27811 40.6332H8.43338V44.4667H2.08781L4.27811 40.6332ZM9.96669 44.4667V40.6332H11.5V44.4667H9.96669ZM34.5 44.4667V40.6332H36.0333V44.4667H34.5ZM43.9118 44.4667H37.5666V40.6332H41.7219L43.9118 44.4667ZM43.9118 39.0999H37.5666V35.2668H41.7219L43.9118 39.0999ZM43.9118 33.7332H37.5666V29.9001H41.7219L43.9118 33.7332ZM43.9118 28.3668H37.5666V24.5333H39.0999V26.0666C39.0999 26.4902 39.4432 26.8335 39.8668 26.8335C40.29 26.8335 40.6332 26.4902 40.6332 26.0666V24.5333H41.7219L43.9118 28.3668ZM43.9118 23H40.6332V19.1665H41.7219L43.9118 23ZM43.9118 17.6332H40.6332V13.8001H41.7219L43.9118 17.6332ZM43.9118 12.2668H40.6332V8.43338H41.7219L43.9118 12.2668ZM42.1665 6.90007H1.53331V1.53331H44.4667L44.4674 6.90007H42.1665Z" fill="#192D6E"/>
<path d="M5.36655 3.8335H3.83324C3.40964 3.8335 3.06641 4.17673 3.06641 4.59998C3.06641 5.02357 3.40964 5.36681 3.83324 5.36681H5.36655C5.7898 5.36681 6.13303 5.02357 6.13303 4.59998C6.13303 4.17673 5.7898 3.8335 5.36655 3.8335Z" fill="#192D6E"/>
<path d="M13.0328 3.8335H8.43285C8.00925 3.8335 7.66602 4.17673 7.66602 4.59998C7.66602 5.02357 8.00925 5.36681 8.43285 5.36681H13.0328C13.4564 5.36681 13.7996 5.02357 13.7996 4.59998C13.7996 4.17673 13.4564 3.8335 13.0328 3.8335Z" fill="#192D6E"/>
</g>
<defs>
<clipPath id="clip0">
<rect width="46" height="46" fill="white"/>
</clipPath>
</defs>
</svg>
