<svg width="49" height="49" viewBox="0 0 49 49" fill="none" xmlns="http://www.w3.org/2000/svg">
<g clip-path="url(#clip0)">
<path d="M48.8867 28.3734C48.0972 26.5099 46.9675 24.8356 45.5293 23.3973C44.091 21.9591 42.4168 20.8294 40.5533 20.0399C39.8296 19.7333 38.9941 20.0713 38.6874 20.795C38.3807 21.5188 38.7188 22.3543 39.4425 22.6611C40.9674 23.3072 42.338 24.2321 43.5162 25.4102C44.6944 26.5884 45.6193 27.959 46.2654 29.484C46.5722 30.2078 47.4075 30.546 48.1314 30.2392C48.8552 29.9326 49.1934 29.0972 48.8867 28.3734Z" fill="#192D6E"/>
<path d="M43.6423 30.5871C43.1398 29.401 42.4212 28.3358 41.5064 27.421C40.5915 26.506 39.5263 25.7873 38.3402 25.285C37.6164 24.9784 36.7811 25.3165 36.4744 26.0402C36.1679 26.7642 36.506 27.5995 37.2298 27.9063C38.077 28.2651 38.8387 28.7792 39.4935 29.4341C40.1483 30.0888 40.6623 30.8504 41.0212 31.6976C41.328 32.4218 42.1637 32.7596 42.887 32.4529C43.6108 32.1463 43.949 31.3109 43.6423 30.5871Z" fill="#192D6E"/>
<path d="M10.3125 20.7952C10.0058 20.0715 9.17028 19.7331 8.44658 20.04C6.58295 20.8296 4.90882 21.9592 3.47059 23.3974C2.03246 24.8357 0.902778 26.5099 0.113132 28.3734C-0.193501 29.0972 0.144618 29.9326 0.868421 30.2393C1.5928 30.5463 2.42781 30.2074 2.73434 29.4841C3.38044 27.9592 4.3055 26.5886 5.48361 25.4103C6.66171 24.2322 8.03228 23.3073 9.55731 22.6612C10.2811 22.3544 10.6192 21.519 10.3125 20.7952Z" fill="#192D6E"/>
<path d="M12.5251 26.0404C12.2185 25.3166 11.3831 24.9783 10.6592 25.2851C9.4733 25.7874 8.40803 26.5062 7.4931 27.4211C6.57828 28.3359 5.85964 29.4011 5.3573 30.587C5.05057 31.3108 5.38888 32.1461 6.11259 32.4529C6.83668 32.7596 7.67178 32.421 7.97842 31.6976C8.3373 30.8504 8.85132 30.0887 9.50612 29.4339C10.1609 28.7791 10.9226 28.2651 11.7698 27.9062C12.4936 27.5995 12.8317 26.7642 12.5251 26.0404Z" fill="#192D6E"/>
<path d="M31.024 17.3845L31.0241 17.3847L25.8039 5.42711C25.5775 4.90849 25.0654 4.57324 24.4995 4.57324C23.9336 4.57324 23.4215 4.90849 23.1951 5.42711L17.9749 17.3845C17.5821 18.284 17.3828 19.2415 17.3828 20.23C17.3828 24.1541 20.5754 27.3467 24.4995 27.3467C28.4236 27.3467 31.5972 24.1541 31.5972 20.23C31.5972 19.2415 31.4169 18.284 31.024 17.3845ZM24.4995 24.4999C22.145 24.4999 20.2295 22.5844 20.2295 20.2299C20.2295 19.6359 20.3486 19.0619 20.5837 18.5237L24.4995 9.55411L28.4153 18.5237C28.4153 18.5238 28.4153 18.5238 28.4154 18.5239C28.6504 19.0618 28.7695 19.6359 28.7695 20.2299C28.7695 22.5844 26.854 24.4999 24.4995 24.4999Z" fill="#192D6E"/>
<path d="M47.3666 41.58H43.8814L42.2148 38.2471C41.5373 36.8921 40.2037 36.0158 38.7127 35.9006V34.4633C38.7127 32.1089 36.8161 30.1934 34.4616 30.1934H14.5352C12.1807 30.1934 10.2652 32.1089 10.2652 34.4633V35.9006C8.77414 36.0158 7.45956 36.8921 6.78198 38.2472L5.11551 41.5801H1.61861C0.832504 41.5801 0.195312 42.2174 0.195312 43.0034C0.195312 43.7894 0.8326 44.4267 1.61861 44.4267C2.80054 44.4267 46.013 44.4267 47.3667 44.4267C48.1528 44.4267 48.79 43.7894 48.79 43.0034C48.79 42.2174 48.1527 41.58 47.3666 41.58ZM13.0928 34.4634C13.0928 33.6786 13.7503 33.0401 14.5352 33.0401H34.4618C35.2467 33.0401 35.8851 33.6787 35.8851 34.4634V35.8867H13.0928V34.4634ZM8.29811 41.58L9.32807 39.5202C9.57077 39.0349 10.0586 38.7334 10.6012 38.7334H38.3959C38.9384 38.7334 39.4263 39.0349 39.669 39.5202L40.699 41.58H8.29811Z" fill="#192D6E"/>
</g>
<defs>
<clipPath id="clip0">
<rect width="49" height="49" fill="white"/>
</clipPath>
</defs>
</svg>
