<svg width="18" height="18" viewBox="0 0 18 18" fill="none" xmlns="http://www.w3.org/2000/svg">
<g clip-path="url(#clip0)">
<path d="M12.1128 11.2376L13.169 10.1815C14.2478 9.10264 14.842 7.66826 14.842 6.14255C14.842 2.98579 12.2873 0.430664 9.13008 0.430664C7.60434 0.430664 6.16999 1.0248 5.09116 2.10366C2.8641 4.33072 2.8641 7.95441 5.09116 10.1815L6.1198 11.2101C2.77164 11.588 0 12.6384 0 14.3143C0 18.6457 18 18.6618 18 14.3143C18 12.6774 15.3557 11.6372 12.1128 11.2376ZM4.55083 6.14255C4.55083 3.61181 6.59889 1.56336 9.13005 1.56336C10.3532 1.56336 11.5031 2.0397 12.368 2.90459C14.1535 4.69 14.1535 7.59513 12.368 9.38054L9.13001 12.6185L5.89202 9.38054C5.02713 8.51562 4.55083 7.36568 4.55083 6.14255ZM14.791 15.6814C11.6071 16.6994 6.39348 16.6995 3.20897 15.6814C1.77473 15.2229 1.1327 14.6644 1.1327 14.3143C1.1327 13.9642 1.77473 13.4057 3.20897 12.9471C4.30765 12.5959 5.67057 12.3576 7.15954 12.2499L8.72957 13.8199C8.95052 14.0409 9.3094 14.0411 9.53049 13.8199L11.0815 12.2689C14.7822 12.5746 16.8673 13.6367 16.8673 14.3143C16.8673 14.6644 16.2253 15.2229 14.791 15.6814Z" fill="#4D63AA"/>
<path d="M11.6048 6.14274C11.6048 4.77816 10.4946 3.66797 9.13001 3.66797C7.76543 3.66797 6.65527 4.77816 6.65527 6.14274C6.65527 7.50732 7.76543 8.61747 9.13001 8.61747C10.4946 8.61747 11.6048 7.50732 11.6048 6.14274ZM7.78797 6.14274C7.78797 5.40273 8.39 4.80067 9.13001 4.80067C9.87002 4.80067 10.4721 5.40273 10.4721 6.14274C10.4721 6.88275 9.87002 7.48477 9.13001 7.48477C8.39 7.48477 7.78797 6.88275 7.78797 6.14274Z" fill="#4D63AA"/>
</g>
<defs>
<clipPath id="clip0">
<rect width="18" height="18" fill="white"/>
</clipPath>
</defs>
</svg>
