<svg width="17" height="17" viewBox="0 0 17 17" fill="none" xmlns="http://www.w3.org/2000/svg">
<path d="M11.4399 10.6128L12.4374 9.61534C13.4563 8.59645 14.0174 7.24175 14.0174 5.8008C14.0174 2.81942 11.6047 0.40625 8.62286 0.40625C7.18188 0.40625 5.82721 0.967378 4.80832 1.9863C2.70498 4.08964 2.70498 7.512 4.80832 9.61534L5.77981 10.5869C2.61766 10.9438 0 11.9358 0 13.5185C0 17.6093 17 17.6245 17 13.5185C17 11.9726 14.5026 10.9902 11.4399 10.6128ZM4.29801 5.8008C4.29801 3.41067 6.23229 1.47602 8.62282 1.47602C9.77801 1.47602 10.8641 1.92589 11.6809 2.74273C13.3672 4.42896 13.3672 7.17269 11.6809 8.85891L8.62279 11.917L5.56468 8.85891C4.74784 8.04204 4.29801 6.95599 4.29801 5.8008ZM13.9693 14.8097C10.9622 15.7711 6.03829 15.7713 3.03069 14.8097C1.67613 14.3767 1.06977 13.8492 1.06977 13.5185C1.06977 13.1879 1.67613 12.6604 3.03069 12.2274C4.06834 11.8956 5.35554 11.6705 6.76179 11.5688L8.24459 13.0516C8.45327 13.2604 8.79222 13.2605 9.00102 13.0516L10.4658 11.5868C13.961 11.8755 15.9302 12.8786 15.9302 13.5185C15.9302 13.8492 15.3239 14.3767 13.9693 14.8097Z" fill="white"/>
<path d="M10.9602 5.80213C10.9602 4.51335 9.91167 3.46484 8.6229 3.46484C7.33412 3.46484 6.28564 4.51335 6.28564 5.80213C6.28564 7.0909 7.33412 8.13938 8.6229 8.13938C9.91167 8.13938 10.9602 7.0909 10.9602 5.80213ZM7.35542 5.80213C7.35542 5.10323 7.924 4.53461 8.6229 4.53461C9.32179 4.53461 9.89041 5.10323 9.89041 5.80213C9.89041 6.50102 9.32179 7.0696 8.6229 7.0696C7.924 7.0696 7.35542 6.50102 7.35542 5.80213Z" fill="white"/>
</svg>
