<svg width="43" height="43" viewBox="0 0 43 43" fill="none" xmlns="http://www.w3.org/2000/svg">
<path d="M35.9396 27.6975L30.5161 26.4922V24.7784C32.612 23.2658 33.9838 20.8085 33.9838 18.0323V14.335C34.1274 14.1928 34.2626 14.0409 34.3784 13.871H35.3709H36.0644H37.4515V12.4839H36.0644V11.0968C36.0644 6.13444 32.4809 1.849 27.651 0.907855C27.4554 0.379371 26.9505 0 26.3548 0H24.9677C24.3719 0 23.867 0.379371 23.6714 0.907855C18.8416 1.849 15.258 6.13444 15.258 11.0968V12.4839H13.8709V13.871H15.258H15.9515H16.944C17.0605 14.0409 17.1951 14.1935 17.3386 14.3356V18.0323C17.3386 20.8085 18.7105 23.2658 20.8064 24.7784V26.4922L15.3828 27.6975C11.2257 28.6214 8.32251 32.2403 8.32251 36.4987V43H42.9999V36.4987C42.9999 32.2403 40.0967 28.6214 35.9396 27.6975ZM15.258 41.6129H9.70961V36.4987C9.70961 33.0434 11.9713 30.0917 15.258 29.1651V41.6129ZM30.8517 27.9875L28.2613 31.442L26.37 29.5507L29.9127 27.7794L30.8517 27.9875ZM25.6612 28.3536L22.1935 26.6198V25.5885C23.2504 26.0753 24.4225 26.3548 25.6612 26.3548C26.8999 26.3548 28.072 26.0753 29.129 25.5885V26.6198L25.6612 28.3536ZM17.9587 12.8674L17.7673 12.4839H16.6451V11.0968C16.6451 6.91815 19.5753 3.28534 23.5806 2.33518V5.54839H24.9677V1.3871H26.3548V5.54839H27.7419V2.33518C31.7471 3.28534 34.6774 6.91815 34.6774 11.0968V12.4839H33.5552L33.3638 12.8674C33.0538 13.486 32.4316 13.871 31.7395 13.871H19.583C18.8901 13.871 18.268 13.4867 17.9587 12.8674ZM18.7257 15.1388C19.0004 15.2151 19.2875 15.2581 19.583 15.2581H31.7388C32.0342 15.2581 32.3214 15.2144 32.596 15.1388V17.6036L31.6694 18.0669C30.808 18.4976 29.8426 18.7258 28.8793 18.7258H27.7419C27.626 18.7258 27.5241 18.6516 27.4873 18.542L27.2321 17.7763C27.0053 17.1001 26.3742 16.6452 25.6612 16.6452C24.9483 16.6452 24.3171 17.1001 24.0896 17.7777L23.8358 18.5413C23.7983 18.6516 23.6964 18.7258 23.5806 18.7258H22.4432C21.4791 18.7258 20.5144 18.4976 19.6523 18.0669L18.7257 17.6036V15.1388ZM18.8332 19.2085L19.0316 19.3077C20.0858 19.8348 21.2655 20.1129 22.4432 20.1129H23.5806C24.2935 20.1129 24.9247 19.6579 25.1522 18.9803L25.406 18.2167C25.4802 17.9962 25.8429 17.9969 25.9158 18.216L26.171 18.9817C26.3978 19.6579 27.0289 20.1129 27.7419 20.1129H28.8793C30.0569 20.1129 31.2367 19.8348 32.2908 19.3077L32.4892 19.2085C31.9281 22.473 29.0839 24.9677 25.6612 24.9677C22.2386 24.9677 19.3943 22.473 18.8332 19.2085ZM21.4098 27.7787L24.9524 29.55L23.0611 31.4413L20.4707 27.9868L21.4098 27.7787ZM24.9677 41.6129H16.6451V40.2258H24.9677V41.6129ZM24.9677 38.8387H16.6451V28.8377L18.9844 28.3183L24.9677 36.2955V38.8387ZM23.9017 32.5621L25.6612 30.8033L27.4208 32.5628L25.6612 34.9084L23.9017 32.5621ZM34.6774 41.6129H26.3548V40.2258H34.6774V41.6129ZM34.6774 38.8387H26.3548V36.2955L32.338 28.3176L34.6774 28.8377V38.8387ZM41.6128 41.6129H36.0644V29.1651C39.3512 30.0917 41.6128 33.0441 41.6128 36.4987V41.6129Z" fill="#192D6E"/>
<path d="M32.5968 11.0972H28.4175C28.8579 10.516 29.1291 9.80028 29.1291 9.01657C29.1291 7.10446 27.5734 5.54883 25.6613 5.54883C23.7492 5.54883 22.1936 7.10446 22.1936 9.01657C22.1936 9.80028 22.4648 10.516 22.9052 11.0972H18.7258V12.4843H32.5968V11.0972ZM25.6613 11.0972C24.5142 11.0972 23.5807 10.1637 23.5807 9.01657C23.5807 7.86944 24.5142 6.93592 25.6613 6.93592C26.8084 6.93592 27.742 7.86944 27.742 9.01657C27.742 10.1637 26.8084 11.0972 25.6613 11.0972Z" fill="#192D6E"/>
<path d="M33.2903 36.0645H27.7419V37.4516H33.2903V36.0645Z" fill="#192D6E"/>
<path d="M10.4031 21.4998V21.3826C10.4031 20.8791 10.2665 20.3853 10.0078 19.9553L7.62893 15.9902L5.25006 19.9546C4.99137 20.3859 4.85474 20.8791 4.85474 21.3826V21.4998C4.85474 23.0297 6.09896 24.274 7.62893 24.274C9.1589 24.274 10.4031 23.0297 10.4031 21.4998ZM6.24183 21.4998V21.3826C6.24183 21.1308 6.31049 20.8846 6.43949 20.6689L7.62893 18.6868L8.81837 20.6696C8.94737 20.8846 9.01603 21.1308 9.01603 21.3826V21.4998C9.01603 22.2648 8.39391 22.8869 7.62893 22.8869C6.86395 22.8869 6.24183 22.2648 6.24183 21.4998Z" fill="#192D6E"/>
<path d="M9.70968 28.4358V26.6867C9.91636 26.6139 10.1182 26.5299 10.3151 26.4363L11.5524 27.6729L14.4945 24.7302L13.2579 23.4929C13.3515 23.2959 13.4354 23.0934 13.5082 22.8874H15.2581V18.7261H13.5089C13.4361 18.5201 13.3515 18.3176 13.2586 18.1207L14.4952 16.8834L11.5531 13.9406L10.3158 15.1772C10.1189 15.0836 9.91705 14.9997 9.71037 14.9269V13.1777H5.54839V14.9269C5.34171 14.9997 5.13989 15.0836 4.94292 15.1772L3.70563 13.9406L0.763597 16.8834L2.00019 18.1207C1.90656 18.3176 1.82265 18.5201 1.74913 18.7261H0V22.8874H1.74913C1.82195 23.0934 1.90656 23.2959 1.9995 23.4929L0.762903 24.7302L3.70494 27.6729L4.94223 26.4363C5.13989 26.5292 5.34171 26.6132 5.54839 26.6867V28.4358H9.70968ZM5.16763 24.9854L4.70434 24.7114L3.70563 25.7102L2.72495 24.7288L3.72366 23.7301L3.4504 23.2675C3.22084 22.8791 3.04676 22.4588 2.93302 22.0191L2.79916 21.5003H1.3871V20.1132H2.79916L2.93302 19.5931C3.04676 19.1533 3.22084 18.7331 3.4504 18.3447L3.72366 17.8821L2.72495 16.8834L3.70563 15.902L4.70434 16.9007L5.16763 16.6268C5.55532 16.3979 5.97492 16.2245 6.41532 16.1108L6.93548 15.9776V14.5648H8.32258V15.9776L8.84274 16.1114C9.28314 16.2252 9.70274 16.3986 10.0904 16.6274L10.5537 16.9014L11.5524 15.9027L12.5331 16.8841L11.5344 17.8828L11.8077 18.3454C12.0372 18.7338 12.2113 19.154 12.325 19.5938L12.4589 20.1132H13.871V21.5003H12.4589L12.325 22.0205C12.2113 22.4602 12.0372 22.8805 11.8077 23.2689L11.5344 23.7315L12.5331 24.7302L11.5524 25.7115L10.5537 24.7128L10.0904 24.9868C9.70274 25.2157 9.28314 25.389 8.84274 25.5028L8.32258 25.6359V27.0487H6.93548V25.6359L6.41532 25.5021C5.97492 25.3877 5.55532 25.2143 5.16763 24.9854Z" fill="#192D6E"/>
</svg>
