<svg width="43" height="43" viewBox="0 0 43 43" fill="none" xmlns="http://www.w3.org/2000/svg">
<path d="M41.8908 13.5322C40.4173 12.0586 38.0197 12.0586 36.5457 13.5325C36.0923 13.9863 33.1978 16.8831 32.7556 17.3257V7.34242C32.7556 6.33293 32.3625 5.3839 31.6486 4.67012L28.0856 1.10691C27.3718 0.393047 26.4227 0 25.4132 0H3.78101C1.6971 0 0.00170898 1.69539 0.00170898 3.7793V39.2207C0.00170898 41.3046 1.6971 43 3.78101 43H28.9763C31.0602 43 32.7556 41.3046 32.7556 39.2207V28.0198L41.8908 18.8769C43.3678 17.4 43.3681 15.0093 41.8908 13.5322ZM25.1971 2.51953C25.4351 2.51953 25.8938 2.4783 26.304 2.88847L29.8671 6.45168C30.2669 6.85153 30.2362 7.28968 30.2362 7.55859H25.1971V2.51953ZM30.2361 39.2207C30.2361 39.9153 29.671 40.4805 28.9763 40.4805H3.78101C3.08637 40.4805 2.52124 39.9153 2.52124 39.2207V3.7793C2.52124 3.08466 3.08637 2.51953 3.78101 2.51953H22.6775V8.81836C22.6775 9.51409 23.2415 10.0781 23.9373 10.0781H30.2361V19.8474C30.2361 19.8474 26.5194 23.5673 26.5193 23.5674L24.7385 25.3482C24.6003 25.4864 24.496 25.655 24.4342 25.8406L22.6525 31.1853C22.5016 31.638 22.6195 32.1371 22.9569 32.4745C23.2948 32.8124 23.7941 32.9296 24.2461 32.7789L29.5908 30.9973C29.7764 30.9355 29.945 30.8313 30.0832 30.6929L30.2361 30.5401V39.2207ZM27.4108 26.239L29.1924 28.0205L28.5119 28.7011L25.8396 29.5918L26.7303 26.9194L27.4108 26.239ZM30.9736 26.2386L29.1921 24.457C30.1408 23.5076 34.3542 19.2905 35.2478 18.3962L37.0293 20.1777L30.9736 26.2386ZM40.1089 17.0957L38.8102 18.3954L37.0287 16.6139L38.3277 15.3137C38.8192 14.8225 39.6182 14.8226 40.1094 15.3137C40.6004 15.805 40.603 16.6014 40.1089 17.0957Z" fill="#192D6E"/>
<path d="M23.937 12.5977H6.30029C5.60457 12.5977 5.04053 13.1617 5.04053 13.8574C5.04053 14.5531 5.60457 15.1172 6.30029 15.1172H23.937C24.6327 15.1172 25.1968 14.5531 25.1968 13.8574C25.1968 13.1617 24.6327 12.5977 23.937 12.5977Z" fill="#192D6E"/>
<path d="M18.8979 17.6367H6.30029C5.60457 17.6367 5.04053 18.2008 5.04053 18.8965C5.04053 19.5922 5.60457 20.1562 6.30029 20.1562H18.8979C19.5937 20.1562 20.1577 19.5922 20.1577 18.8965C20.1577 18.2008 19.5937 17.6367 18.8979 17.6367Z" fill="#192D6E"/>
<path d="M18.8979 22.6758H6.30029C5.60457 22.6758 5.04053 23.2398 5.04053 23.9355C5.04053 24.6313 5.60457 25.1953 6.30029 25.1953H18.8979C19.5937 25.1953 20.1577 24.6313 20.1577 23.9355C20.1577 23.2398 19.5937 22.6758 18.8979 22.6758Z" fill="#192D6E"/>
<path d="M18.8979 27.7148H6.30029C5.60457 27.7148 5.04053 28.2789 5.04053 28.9746C5.04053 29.6703 5.60457 30.2344 6.30029 30.2344H18.8979C19.5937 30.2344 20.1577 29.6703 20.1577 28.9746C20.1577 28.2789 19.5937 27.7148 18.8979 27.7148Z" fill="#192D6E"/>
<path d="M23.937 35.4414H16.3784C15.6827 35.4414 15.1187 36.0054 15.1187 36.7012C15.1187 37.3969 15.6827 37.9609 16.3784 37.9609H23.937C24.6327 37.9609 25.1968 37.3969 25.1968 36.7012C25.1968 36.0054 24.6327 35.4414 23.937 35.4414Z" fill="#192D6E"/>
</svg>
