<svg width="43" height="43" viewBox="0 0 43 43" fill="none" xmlns="http://www.w3.org/2000/svg">
<g clip-path="url(#clip0)">
<path d="M39.7655 11.667L39.7642 11.6335C39.7455 11.2205 39.733 10.7835 39.7255 10.2973C39.6904 7.92641 37.8056 5.96525 35.4344 5.83272C30.4905 5.55681 26.6659 3.94471 23.3981 0.759548L23.3702 0.732975C22.3043 -0.244325 20.6965 -0.244325 19.6303 0.732975L19.6024 0.759548C16.3346 3.94471 12.51 5.55681 7.56611 5.83304C5.1952 5.96525 3.31015 7.92641 3.27505 10.2977C3.26783 10.7806 3.25504 11.2175 3.23634 11.6335L3.23437 11.7113C3.13824 16.7526 3.01883 23.0268 5.11778 28.7217C6.2719 31.8534 8.01982 34.5756 10.3127 36.8134C12.924 39.3617 16.3444 41.3849 20.4787 42.8264C20.6132 42.8733 20.7529 42.9114 20.8953 42.9399C21.0961 42.98 21.2982 43 21.5003 43C21.7023 43 21.9048 42.98 22.1052 42.9399C22.2476 42.9114 22.3883 42.873 22.5235 42.8258C26.6528 41.3816 30.0696 39.3575 32.6787 36.8094C34.9705 34.571 36.7184 31.8481 37.8736 28.7158C39.9804 23.0039 39.8613 16.7178 39.7655 11.667ZM35.5063 27.8428C33.2925 33.845 28.7734 37.9671 21.6909 40.444C21.6656 40.4526 21.6387 40.4601 21.6108 40.4657C21.5377 40.4801 21.4632 40.4801 21.389 40.4653C21.3615 40.4598 21.3346 40.4526 21.3097 40.444C14.2196 37.9717 9.69754 33.8519 7.48541 27.8494C5.55082 22.6 5.66039 16.8405 5.75717 11.7595L5.75783 11.7313C5.77751 11.2946 5.79063 10.8373 5.79785 10.3347C5.8136 9.28197 6.65213 8.41096 7.70685 8.35224C10.5046 8.19608 12.9624 7.65543 15.2208 6.69946C17.4762 5.74479 19.4794 4.39908 21.3441 2.58555C21.4389 2.5055 21.5619 2.50517 21.6564 2.58555C23.5215 4.39908 25.5246 5.74479 27.7797 6.69946C30.0381 7.65543 32.4959 8.19608 35.294 8.35224C36.3487 8.41096 37.1873 9.28197 37.2027 10.3351C37.2102 10.8403 37.2233 11.2976 37.243 11.7313C37.3395 16.8182 37.4464 22.5823 35.5063 27.8428Z" fill="#192D6E"/>
<path d="M21.4997 10.7842C15.5906 10.7842 10.7834 15.5916 10.7834 21.5004C10.7834 27.4095 15.5906 32.2169 21.4997 32.2169C27.4084 32.2169 32.2159 27.4095 32.2159 21.5004C32.2159 15.5916 27.4084 10.7842 21.4997 10.7842ZM21.4997 29.6935C16.9819 29.6935 13.3066 26.0182 13.3066 21.5004C13.3066 16.9826 16.9819 13.3073 21.4997 13.3073C26.0171 13.3073 29.6924 16.9826 29.6924 21.5004C29.6924 26.0182 26.0171 29.6935 21.4997 29.6935Z" fill="#192D6E"/>
<path d="M24.5797 18.1735L19.6023 23.1509L18.2513 21.7999C17.7586 21.3072 16.9597 21.3072 16.467 21.7999C15.9746 22.2927 15.9746 23.0915 16.467 23.584L18.7103 25.8273C18.9567 26.0736 19.2795 26.1967 19.6023 26.1967C19.9251 26.1967 20.2479 26.0736 20.4943 25.8273L26.364 19.9575C26.8564 19.4648 26.8564 18.6659 26.364 18.1735C25.8713 17.6804 25.0724 17.6804 24.5797 18.1735Z" fill="#192D6E"/>
</g>
<defs>
<clipPath id="clip0">
<rect width="43" height="43" fill="white"/>
</clipPath>
</defs>
</svg>
