<svg width="46" height="46" viewBox="0 0 46 46" fill="none" xmlns="http://www.w3.org/2000/svg">
<path d="M24.9171 11.4996C24.9171 12.558 24.059 13.4161 23.0005 13.4161C21.9421 13.4161 21.084 12.558 21.084 11.4996C21.084 10.4411 21.9421 9.58301 23.0005 9.58301C24.059 9.58301 24.9171 10.4411 24.9171 11.4996Z" fill="#192D6E"/>
<path d="M23.0005 36.4165C22.207 36.4165 21.563 35.7726 21.563 34.979V20.125H19.6465C18.853 20.125 18.209 19.481 18.209 18.6875C18.209 17.894 18.853 17.25 19.6465 17.25H23.0005C23.794 17.25 24.438 17.894 24.438 18.6875V34.979C24.438 35.7726 23.794 36.4165 23.0005 36.4165Z" fill="#192D6E"/>
<path d="M23 46C10.3173 46 0 35.6827 0 23C0 10.3173 10.3173 0 23 0C35.6827 0 46 10.3173 46 23C46 35.6827 35.6827 46 23 46ZM23 2.875C11.9025 2.875 2.875 11.9025 2.875 23C2.875 34.0975 11.9025 43.125 23 43.125C34.0975 43.125 43.125 34.0975 43.125 23C43.125 11.9025 34.0975 2.875 23 2.875Z" fill="#192D6E"/>
<path d="M27.3125 36.417H18.6875C17.894 36.417 17.25 35.773 17.25 34.9795C17.25 34.186 17.894 33.542 18.6875 33.542H27.3125C28.106 33.542 28.75 34.186 28.75 34.9795C28.75 35.773 28.106 36.417 27.3125 36.417Z" fill="#192D6E"/>
</svg>
