<svg width="17" height="17" viewBox="0 0 17 17" fill="none" xmlns="http://www.w3.org/2000/svg">
<path d="M16.5628 12.5386L14.4494 10.4253C13.8668 9.84264 12.9187 9.84264 12.3361 10.4253L11.3755 11.3859C10.9341 11.8273 10.2158 11.8271 9.77459 11.386L5.61091 7.21879C5.16848 6.77636 5.16841 6.06027 5.61091 5.61777C5.76564 5.46305 6.20993 5.01875 6.57151 4.65717C7.15161 4.07711 7.15971 3.13199 6.57095 2.54329L4.45816 0.437153C3.87551 -0.145463 2.92746 -0.145463 2.34637 0.435625C1.91154 0.866669 1.77129 1.00572 1.57632 1.199C-0.524774 3.30006 -0.524774 6.71876 1.57622 8.81975L8.17343 15.4204C10.2794 17.5264 13.6881 17.5266 15.7943 15.4204L16.5628 14.6519C17.1454 14.0693 17.1454 13.1213 16.5628 12.5386ZM3.04928 1.14159C3.24349 0.947385 3.55945 0.947352 3.75429 1.14212L5.86707 3.24826C6.06174 3.44293 6.06174 3.758 5.86707 3.9527L5.51482 4.30492L2.69886 1.48896L3.04928 1.14159ZM8.87801 14.7161L2.28076 8.11535C0.655201 6.48979 0.565851 3.93729 2.00597 2.20499L4.81377 5.01278C4.07599 5.84913 4.10674 7.12357 4.90631 7.92313L9.06985 12.0902C9.06989 12.0902 9.06995 12.0903 9.06999 12.0903C9.86869 12.889 11.1431 12.9218 11.9804 12.183L14.7883 14.9909C13.0615 16.4285 10.5148 16.3528 8.87801 14.7161ZM15.8584 13.9475L15.5061 14.2997L12.6883 11.4819L13.0405 11.1297C13.2348 10.9355 13.5508 10.9355 13.745 11.1297L15.8583 13.243C16.0526 13.4373 16.0526 13.7533 15.8584 13.9475Z" fill="white"/>
</svg>
